<?xml version="1.0" ?><svg viewBox="0 0 88 88" xmlns="http://www.w3.org/2000/svg" fill="#54ffe7"><title/><g id="Web"><circle cx="38" cy="41" r="3"/><path d="M87,22V17a7.0085,7.0085,0,0,0-7-7H8a7.0085,7.0085,0,0,0-7,7v5ZM52,15H80a1,1,0,0,1,0,2H52a1,1,0,0,1,0-2ZM26,13a3,3,0,1,1-3,3A3.0033,3.0033,0,0,1,26,13Zm-8,0a3,3,0,1,1-3,3A3.0033,3.0033,0,0,1,18,13Zm-8,0a3,3,0,1,1-3,3A3.0033,3.0033,0,0,1,10,13Z"/><circle cx="26" cy="16" r="1"/><circle cx="18" cy="16" r="1"/><circle cx="10" cy="16" r="1"/><path d="M56,38.4141,39.707,54.707a1,1,0,0,1-1.414-1.414l17-17a.9994.9994,0,0,1,1.414,0L78,57.5859V31H10V60.5859L25.293,45.293a.9994.9994,0,0,1,1.414,0l17,17a1,1,0,1,1-1.414,1.414L26,47.4141l-16,16V69H78V60.4141ZM33,41a5,5,0,1,1,5,5A5.0059,5.0059,0,0,1,33,41Z"/><path d="M1,24V71a7.0085,7.0085,0,0,0,7,7H80a7.0085,7.0085,0,0,0,7-7V24ZM80,70a1,1,0,0,1-1,1H9a1,1,0,0,1-1-1V30a1,1,0,0,1,1-1H79a1,1,0,0,1,1,1Z"/></g></svg>